<?xml version="1.0" encoding="iso-8859-1"?>
<!-- Generator: Adobe Illustrator 16.0.0, SVG Export Plug-In . SVG Version: 6.00 Build 0)  -->
<!DOCTYPE svg PUBLIC "-//W3C//DTD SVG 1.1//EN" "http://www.w3.org/Graphics/SVG/1.1/DTD/svg11.dtd">
<svg version="1.1" id="Layer_1" xmlns="http://www.w3.org/2000/svg" xmlns:xlink="http://www.w3.org/1999/xlink" x="0px" y="0px"
	 width="31.562px" height="29.898px" viewBox="0 0 31.562 29.898" style="enable-background:new 0 0 31.562 29.898;"
	 xml:space="preserve">
<g>
	<path d="M30.198,28.488l-0.201-3.584l-0.405,0.158c-1.206,0.471-2.397,0.701-3.641,0.701c-1.854,0-3.441-0.512-4.839-0.964
		c-1.198-0.387-2.218-0.712-3.085-0.606c-1.271,0.153-1.904,1.134-2.222,2.121c-0.315-0.987-0.948-1.968-2.22-2.121
		c-0.867-0.105-1.888,0.22-3.085,0.607c-1.399,0.451-2.985,0.962-4.839,0.963c-1.243,0-2.434-0.23-3.641-0.701l-0.405-0.158
		l-0.201,3.584H0v1.41h31.562v-1.41H30.198z M2.065,28.171l0.133-2.37c1.144,0.399,2.28,0.595,3.464,0.595
		c1.955,0,3.661-0.552,5.032-0.994c1.124-0.363,2.068-0.673,2.816-0.581c1.677,0.202,1.936,2.508,1.974,3.351H2.065z M16.129,28.171
		c0.036-0.843,0.291-3.148,1.975-3.351c0.747-0.092,1.692,0.218,2.815,0.581c1.371,0.442,3.078,0.994,5.032,0.994
		c1.184,0,2.32-0.195,3.465-0.595l0.132,2.37H16.129z"/>
	<path d="M10.719,20.77l1.964-0.848l-4.894-5.186l-1.853,0.8l0.388,7.129l1.904-0.821l-0.104-0.998l1.955-0.844L10.719,20.77z
		 M7.97,19.349l-0.224-2.151l0.018-0.008l1.369,1.657L7.97,19.349z"/>
	<path d="M24.347,18.176c0.085-0.063,0.167-0.145,0.246-0.246c0.078-0.102,0.131-0.225,0.157-0.367s0.015-0.305-0.032-0.486
		c-0.049-0.182-0.153-0.383-0.315-0.604l-1.358-1.854l-3.384,2.482l1.407,1.92c0.109,0.146,0.238,0.275,0.387,0.387
		c0.148,0.109,0.306,0.188,0.473,0.236c0.165,0.047,0.338,0.059,0.516,0.033s0.352-0.102,0.522-0.227
		c0.123-0.092,0.22-0.188,0.291-0.289c0.07-0.104,0.119-0.207,0.148-0.309c0.027-0.105,0.038-0.209,0.03-0.311
		c-0.007-0.105-0.027-0.205-0.058-0.299c0.162,0.076,0.322,0.115,0.479,0.115C24.013,18.363,24.177,18.301,24.347,18.176z
		 M22.3,18.336c-0.066,0.049-0.128,0.076-0.186,0.084s-0.111,0.002-0.163-0.018c-0.051-0.021-0.1-0.053-0.145-0.094
		c-0.046-0.043-0.089-0.09-0.128-0.145l-0.448-0.611l0.631-0.461l0.479,0.652C22.519,17.988,22.505,18.186,22.3,18.336z
		 M23.435,17.328c-0.111,0.082-0.208,0.104-0.292,0.07c-0.085-0.037-0.168-0.109-0.248-0.221l-0.403-0.549l0.512-0.375l0.403,0.549
		c0.078,0.107,0.124,0.207,0.137,0.297S23.52,17.266,23.435,17.328z"/>
	<path d="M13.878,3.213c0.073,0.1,0.153,0.198,0.238,0.295c0.084,0.096,0.162,0.19,0.231,0.285l0.71-0.521
		c-0.062-0.064-0.119-0.134-0.17-0.203c-0.088-0.119-0.12-0.218-0.095-0.292c0.026-0.074,0.096-0.153,0.21-0.237L15.86,1.91
		l0.368,0.503l0.578-0.424l-0.368-0.503l0.748-0.549L16.499,0L15.75,0.549l-0.306-0.417l-0.578,0.424l0.306,0.417l-1.175,0.862
		c-0.168,0.123-0.282,0.245-0.343,0.367s-0.088,0.241-0.08,0.358c0.008,0.115,0.041,0.228,0.102,0.337
		C13.736,3.006,13.803,3.111,13.878,3.213z"/>
	<path d="M16.006,6.578c-0.168,0.278-0.273,0.557-0.316,0.834c-0.045,0.277-0.031,0.547,0.035,0.805
		c0.07,0.259,0.193,0.5,0.375,0.725c0.18,0.226,0.41,0.423,0.693,0.593c0.264,0.16,0.535,0.269,0.813,0.326
		c0.279,0.058,0.551,0.06,0.811,0.004c0.262-0.054,0.51-0.165,0.742-0.331c0.232-0.167,0.438-0.396,0.613-0.688
		c0.158-0.262,0.254-0.521,0.291-0.778c0.035-0.257,0.023-0.499-0.035-0.724c-0.059-0.226-0.154-0.427-0.289-0.606
		s-0.293-0.324-0.475-0.434l-0.654,1.088c0.074,0.067,0.141,0.138,0.197,0.21c0.055,0.073,0.098,0.148,0.125,0.227
		c0.025,0.078,0.033,0.158,0.023,0.242c-0.008,0.083-0.041,0.172-0.098,0.266c-0.078,0.131-0.174,0.223-0.283,0.276
		c-0.109,0.053-0.227,0.077-0.352,0.071c-0.125-0.004-0.254-0.029-0.387-0.077c-0.131-0.047-0.256-0.107-0.377-0.18
		c-0.121-0.073-0.232-0.156-0.336-0.25c-0.104-0.095-0.188-0.196-0.25-0.305s-0.096-0.224-0.1-0.346
		c-0.004-0.121,0.031-0.248,0.111-0.379c0.068-0.114,0.146-0.193,0.232-0.239c0.088-0.046,0.172-0.074,0.256-0.083
		c0.084-0.01,0.16-0.004,0.229,0.015c0.068,0.018,0.123,0.034,0.16,0.047L18.41,5.81c-0.48-0.226-0.926-0.277-1.336-0.155
		C16.664,5.775,16.309,6.083,16.006,6.578z"/>
	<path d="M22.061,12.151l0.359-1.02c-0.029-0.011-0.059-0.027-0.092-0.051c-0.029-0.023-0.055-0.057-0.074-0.098
		c-0.018-0.043-0.027-0.093-0.027-0.15c0-0.059,0.016-0.13,0.045-0.215c0.031-0.089,0.08-0.164,0.148-0.226
		c0.066-0.061,0.148-0.075,0.244-0.041c0.092,0.032,0.145,0.086,0.152,0.159c0.01,0.074,0.008,0.15-0.004,0.23
		c-0.012,0.099-0.033,0.208-0.061,0.329c-0.029,0.121-0.053,0.246-0.074,0.373c-0.02,0.128-0.031,0.256-0.035,0.384
		c-0.002,0.127,0.014,0.248,0.051,0.363c0.035,0.114,0.096,0.216,0.178,0.306c0.084,0.089,0.199,0.16,0.352,0.214
		s0.291,0.072,0.42,0.058c0.127-0.016,0.244-0.056,0.348-0.123c0.105-0.067,0.195-0.155,0.271-0.267
		c0.076-0.109,0.139-0.234,0.188-0.375c0.063-0.178,0.1-0.355,0.107-0.533c0.01-0.177-0.033-0.349-0.125-0.514l0.004-0.012
		c0.041,0.018,0.086,0.032,0.139,0.043c0.053,0.01,0.102,0.015,0.148,0.015l0.395-1.12c-0.115,0.03-0.232,0.032-0.352,0.005
		s-0.232-0.061-0.34-0.099l-1.18-0.416c-0.137-0.048-0.273-0.088-0.414-0.123c-0.139-0.035-0.277-0.029-0.414,0.019
		c-0.139,0.047-0.271,0.151-0.4,0.313c-0.131,0.162-0.256,0.415-0.377,0.759c-0.059,0.17-0.109,0.345-0.146,0.524
		c-0.039,0.18-0.051,0.351-0.033,0.515s0.07,0.313,0.162,0.45C21.715,11.965,21.861,12.072,22.061,12.151z M23.406,10.612
		l0.268,0.094c0.148,0.062,0.244,0.148,0.287,0.262c0.045,0.112,0.043,0.231-0.002,0.357c-0.035,0.1-0.09,0.172-0.17,0.217
		c-0.076,0.045-0.148,0.057-0.217,0.033c-0.096-0.034-0.152-0.09-0.172-0.166c-0.018-0.078-0.02-0.183-0.008-0.314
		c0.008-0.081,0.014-0.162,0.02-0.242C23.42,10.771,23.416,10.691,23.406,10.612z"/>
	<path d="M7.629,4.421c0.158,0.127,0.337,0.226,0.537,0.296c0.199,0.07,0.402,0.105,0.607,0.107
		c0.204,0.002,0.398-0.037,0.582-0.115C9.538,4.63,9.708,4.507,9.859,4.338c0.153-0.168,0.277-0.387,0.372-0.657
		c0.096-0.27,0.136-0.518,0.122-0.745c-0.012-0.227-0.067-0.428-0.16-0.604C10.1,2.154,9.973,2.003,9.812,1.876
		C9.651,1.749,9.471,1.65,9.271,1.58c-0.2-0.07-0.401-0.106-0.604-0.107C8.465,1.471,8.271,1.51,8.087,1.59
		C7.904,1.668,7.735,1.791,7.583,1.959C7.431,2.128,7.307,2.348,7.211,2.617C7.116,2.887,7.076,3.135,7.09,3.361
		c0.012,0.228,0.066,0.43,0.159,0.605C7.344,4.143,7.47,4.295,7.629,4.421z M8.009,2.898c0.037-0.104,0.09-0.179,0.158-0.225
		C8.235,2.626,8.309,2.599,8.389,2.59c0.08-0.01,0.164-0.004,0.25,0.016c0.087,0.021,0.168,0.044,0.246,0.071
		C8.962,2.704,9.041,2.737,9.12,2.775C9.201,2.814,9.27,2.862,9.328,2.921c0.059,0.058,0.1,0.126,0.124,0.206
		C9.477,3.205,9.471,3.297,9.434,3.4C9.397,3.504,9.345,3.578,9.276,3.625C9.208,3.671,9.133,3.699,9.051,3.707
		C8.969,3.716,8.886,3.711,8.798,3.69C8.712,3.67,8.63,3.646,8.553,3.619C8.475,3.592,8.396,3.559,8.316,3.521
		C8.237,3.482,8.168,3.434,8.111,3.377c-0.057-0.058-0.096-0.126-0.12-0.205S7.973,3.002,8.009,2.898z"/>
	<path d="M15.354,17.05v2.756h0.737v-0.22h0.008c0.023,0.03,0.05,0.063,0.079,0.095c0.03,0.032,0.066,0.061,0.11,0.086
		c0.044,0.026,0.098,0.048,0.162,0.064s0.143,0.024,0.235,0.024c0.142,0,0.265-0.031,0.371-0.094
		c0.105-0.063,0.192-0.146,0.262-0.247s0.122-0.216,0.156-0.342c0.035-0.126,0.053-0.252,0.053-0.379
		c0-0.118-0.013-0.239-0.039-0.362c-0.025-0.124-0.07-0.235-0.135-0.336s-0.152-0.183-0.263-0.247s-0.25-0.097-0.417-0.097
		c-0.115,0-0.221,0.024-0.316,0.071c-0.095,0.048-0.172,0.114-0.231,0.199h-0.008V17.05H15.354z M16.157,18.466
		c0.025-0.046,0.06-0.084,0.102-0.113c0.043-0.029,0.099-0.045,0.168-0.045s0.126,0.016,0.168,0.045
		c0.043,0.029,0.077,0.067,0.103,0.113c0.025,0.047,0.043,0.1,0.052,0.159c0.009,0.059,0.014,0.118,0.014,0.177
		c0,0.06-0.005,0.119-0.014,0.178c-0.009,0.06-0.026,0.112-0.052,0.16s-0.06,0.086-0.103,0.116
		c-0.042,0.029-0.099,0.044-0.168,0.044s-0.125-0.015-0.168-0.044c-0.042-0.03-0.076-0.068-0.102-0.116
		c-0.026-0.048-0.044-0.101-0.053-0.16c-0.009-0.059-0.014-0.118-0.014-0.178c0-0.059,0.005-0.118,0.014-0.177
		C16.113,18.565,16.131,18.513,16.157,18.466z"/>
	<polygon points="25.701,5.032 25.369,4.558 25.396,4.36 26.147,4.72 26.899,4.192 25.507,3.646 25.658,2.616 24.95,3.112 
		24.884,3.866 24.119,2.775 23.494,3.214 25.076,5.471 	"/>
	<path d="M5.468,11.303c0.148,0.139,0.322,0.247,0.522,0.323c0.199,0.076,0.414,0.114,0.645,0.114c0.203,0,0.396-0.028,0.578-0.085
		s0.342-0.14,0.48-0.25C7.833,11.296,7.948,11.161,8.04,11c0.092-0.16,0.151-0.345,0.179-0.553h-1.11
		c-0.012,0.122-0.059,0.227-0.141,0.314c-0.081,0.089-0.185,0.133-0.31,0.133c-0.112,0-0.202-0.021-0.269-0.064
		c-0.066-0.044-0.116-0.101-0.151-0.171s-0.059-0.15-0.07-0.241c-0.012-0.09-0.018-0.182-0.018-0.275
		c0-0.095,0.006-0.187,0.018-0.276c0.012-0.091,0.035-0.171,0.07-0.241s0.086-0.128,0.153-0.173c0.066-0.046,0.156-0.068,0.27-0.068
		c0.122,0,0.22,0.033,0.294,0.101c0.074,0.063,0.118,0.158,0.13,0.287h1.104C8.17,9.561,8.116,9.377,8.027,9.223
		C7.939,9.067,7.826,8.939,7.687,8.838C7.548,8.735,7.389,8.66,7.208,8.611c-0.18-0.049-0.37-0.073-0.57-0.073
		c-0.23,0-0.446,0.038-0.646,0.114c-0.2,0.076-0.375,0.186-0.523,0.326C5.319,9.12,5.202,9.289,5.116,9.487
		C5.03,9.685,4.987,9.903,4.987,10.143c0,0.242,0.043,0.462,0.129,0.657C5.202,10.996,5.319,11.164,5.468,11.303z"/>
	<path d="M10.266,12.269l0.538,1.097l3.672-1.802l-0.425-0.864c-0.154,0.066-0.3,0.093-0.436,0.079
		c-0.135-0.015-0.26-0.057-0.371-0.129c-0.111-0.071-0.211-0.164-0.3-0.278c-0.088-0.113-0.164-0.238-0.226-0.373l-0.76,0.373
		l0.422,0.859L10.266,12.269z"/>
	<path d="M26.816,22.449c0.239,0.006,0.469-0.008,0.688-0.041c0.219-0.035,0.422-0.102,0.607-0.205
		c0.188-0.104,0.345-0.27,0.471-0.5c0.104-0.189,0.16-0.373,0.167-0.555c0.009-0.182-0.025-0.354-0.104-0.518
		c-0.077-0.162-0.192-0.318-0.348-0.463c-0.154-0.146-0.34-0.277-0.556-0.396c-0.241-0.133-0.477-0.219-0.708-0.256
		c-0.232-0.039-0.45-0.027-0.658,0.029c-0.206,0.059-0.396,0.166-0.565,0.322c-0.172,0.156-0.318,0.361-0.44,0.617l0.967,0.533
		c0.114-0.225,0.249-0.381,0.404-0.473c0.156-0.092,0.336-0.08,0.542,0.033c0.12,0.066,0.205,0.154,0.254,0.264
		c0.05,0.111,0.027,0.248-0.063,0.412c-0.036,0.064-0.084,0.115-0.145,0.148c-0.062,0.033-0.128,0.057-0.201,0.07
		c-0.071,0.014-0.146,0.023-0.221,0.025c-0.076,0.004-0.144,0.006-0.203,0.01c-0.151,0.006-0.307,0.012-0.465,0.016
		c-0.159,0.004-0.315,0.014-0.47,0.029c-0.153,0.016-0.304,0.041-0.452,0.078c-0.146,0.035-0.285,0.084-0.418,0.145
		c-0.155,0.07-0.297,0.168-0.425,0.289c-0.127,0.123-0.233,0.273-0.319,0.455l3.104,1.709l0.481-0.875l-1.621-0.893l0.003-0.006
		C26.348,22.445,26.579,22.443,26.816,22.449z"/>
	<path d="M27.866,8.354c0.042-0.038,0.087-0.065,0.139-0.082c0.052-0.016,0.107-0.021,0.167-0.016
		c0.058,0.005,0.118,0.02,0.177,0.044c0.043,0.019,0.087,0.042,0.131,0.073c0.044,0.029,0.081,0.063,0.111,0.098
		c0.028,0.037,0.05,0.078,0.061,0.123c0.01,0.045,0.005,0.092-0.014,0.139c-0.024,0.059-0.057,0.101-0.099,0.126
		c-0.042,0.026-0.087,0.041-0.136,0.045c-0.05,0.003-0.101-0.002-0.151-0.017c-0.051-0.014-0.1-0.03-0.146-0.049
		c-0.059-0.025-0.106-0.047-0.144-0.068c-0.037-0.02-0.072-0.038-0.103-0.055l-0.246,0.598c0.034,0.008,0.07,0.016,0.108,0.026
		c0.039,0.011,0.091,0.03,0.154,0.056c0.05,0.021,0.099,0.045,0.146,0.073s0.084,0.062,0.112,0.101
		c0.029,0.039,0.046,0.084,0.053,0.135c0.006,0.05-0.005,0.108-0.032,0.176c-0.052,0.126-0.125,0.2-0.219,0.221
		c-0.094,0.021-0.204,0.006-0.331-0.046c-0.075-0.031-0.14-0.071-0.195-0.116c-0.055-0.047-0.092-0.104-0.111-0.17
		c-0.053-0.113-0.043-0.252,0.03-0.414L26.494,9.01c-0.019,0.038-0.042,0.094-0.071,0.166c-0.028,0.074-0.049,0.161-0.061,0.262
		c-0.013,0.099-0.009,0.205,0.006,0.32c0.018,0.114,0.06,0.23,0.13,0.348c0.069,0.118,0.174,0.233,0.311,0.347
		c0.139,0.114,0.322,0.218,0.551,0.312c0.249,0.104,0.47,0.154,0.661,0.156c0.192,0.003,0.358-0.023,0.496-0.08
		s0.25-0.131,0.335-0.227c0.086-0.096,0.147-0.189,0.186-0.283c0.047-0.114,0.074-0.215,0.082-0.303
		c0.006-0.088,0.002-0.166-0.013-0.23c-0.016-0.067-0.041-0.123-0.072-0.17c-0.032-0.045-0.063-0.084-0.094-0.115
		s-0.057-0.055-0.078-0.07c-0.023-0.017-0.032-0.027-0.03-0.033l0.004-0.009c0.001-0.003,0.023,0,0.07,0.009
		c0.046,0.009,0.102,0.003,0.169-0.018c0.066-0.021,0.139-0.066,0.217-0.135c0.077-0.068,0.15-0.184,0.217-0.345
		c0.026-0.064,0.039-0.15,0.036-0.257c-0.002-0.107-0.031-0.221-0.09-0.34c-0.06-0.121-0.152-0.24-0.279-0.359
		s-0.303-0.225-0.524-0.316c-0.173-0.07-0.344-0.116-0.515-0.137c-0.17-0.021-0.33-0.012-0.481,0.025
		c-0.153,0.039-0.291,0.111-0.413,0.215c-0.121,0.104-0.221,0.246-0.298,0.426l0.825,0.34C27.793,8.443,27.825,8.391,27.866,8.354z"
		/>
</g>
<g>
</g>
<g>
</g>
<g>
</g>
<g>
</g>
<g>
</g>
<g>
</g>
<g>
</g>
<g>
</g>
<g>
</g>
<g>
</g>
<g>
</g>
<g>
</g>
<g>
</g>
<g>
</g>
<g>
</g>
</svg>
